<svg width="36" height="36" viewBox="0 0 36 36" fill="none" xmlns="http://www.w3.org/2000/svg">
<path fill-rule="evenodd" clip-rule="evenodd" d="M17.2683 6.65854C11.4067 6.65854 6.65854 11.4042 6.65854 17.2539C6.65854 23.1036 11.4067 27.8493 17.2683 27.8493C20.1927 27.8493 22.8375 26.6702 24.7583 24.7582C26.6877 22.8376 27.878 20.1862 27.878 17.2539C27.878 11.4042 23.1299 6.65854 17.2683 6.65854ZM3 17.2539C3 9.37971 9.39012 3 17.2683 3C25.1465 3 31.5366 9.37971 31.5366 17.2539C31.5366 20.5379 30.4233 23.5642 28.5561 25.9736L32.4635 29.8765C33.1783 30.5905 33.1789 31.7487 32.465 32.4635C31.751 33.1783 30.5928 33.1789 29.878 32.465L25.9641 28.5555C23.5572 30.406 20.5402 31.5079 17.2683 31.5079C9.39012 31.5079 3 25.1282 3 17.2539Z" fill="#0084FF"/>
<rect x="5.68359" y="6.63184" width="22.7368" height="21.7895" rx="10.8947" fill="#0084FF"/>
<g clip-path="url(#clip0_3621_3231)">
<path d="M23.2449 13.3358C23.4447 13.6363 23.4903 14.0394 23.2816 14.395C22.6526 15.6803 21.3975 18.0322 20.4237 19.6913C19.5889 21.1135 18.3578 22.9437 17.5079 24.2315C17.4383 24.35 17.3173 24.5028 17.2144 24.5712C17.0087 24.708 16.6849 24.7789 16.4306 24.7313C16.0069 24.652 15.7222 24.3356 15.5919 23.9166L14.6067 20.0928C14.5249 19.8583 14.664 19.6213 14.8697 19.4844L17.4416 17.7737C17.6474 17.6368 17.7532 17.3497 17.5866 17.0993C17.4201 16.8489 17.1658 16.8013 16.9086 16.9724L14.3367 18.6831C14.131 18.8199 13.8253 18.8065 13.6406 18.6404L10.4949 16.2536C10.1922 16.0216 10.0104 15.6368 10.1525 15.181C10.2431 14.7596 10.5699 14.47 10.9784 14.4149C12.2223 14.1656 14.6071 13.7352 16.2928 13.4809C18.1994 13.2241 20.887 13.0258 22.2822 12.8924C22.6908 12.8374 23.045 13.0353 23.2449 13.3358Z" fill="white"/>
</g>
<defs>
<clipPath id="clip0_3621_3231">
<rect width="14.75" height="14.4139" fill="white" transform="translate(8 14.8311) rotate(-33.6297)"/>
</clipPath>
</defs>
</svg>
